<svg xmlns="http://www.w3.org/2000/svg" viewBox="0 0 33.96 33.96" aria-hidden="true">
  <path fill="#5d5d60" fill-rule="evenodd" d="M 16.98 8.69 C 12.41 8.69 8.69 12.41 8.69 16.98 C 8.69 21.55 12.41 25.27 16.98 25.27 C 21.55 25.27 25.27 21.55 25.27 16.98 C 25.27 12.41 21.55 8.69 16.98 8.69 C 24.48 21.12 21.12 24.48 16.98 24.48 C 12.84 24.48 9.47 21.12 9.47 16.98 C 9.47 12.84 12.84 9.47 16.98 9.47 C 21.12 9.47 24.48 12.84 24.48 16.98"/>
  <path fill="#5d5d60" fill-rule="evenodd" d="M 16.98 11.34 C 13.87 11.34 11.34 13.87 11.34 16.98 C 11.34 20.09 13.87 22.62 16.98 22.62 C 20.09 22.62 22.62 20.09 22.62 16.98 C 22.62 13.87 20.09 11.34 16.98 11.34 C 21.83 19.66 19.66 21.83 16.98 21.83 C 14.30 21.83 12.12 19.66 12.12 16.98 C 12.12 14.30 14.30 12.12 16.98 12.12 C 19.66 12.12 21.83 14.30 21.83 16.98"/>
  <path fill="#5d5d60" fill-rule="evenodd" d="M 16.98 14.04 C 15.36 14.04 14.03 15.36 14.03 16.98 C 14.03 18.60 15.36 19.92 16.98 19.92 C 18.60 19.92 19.92 18.60 19.92 16.98 C 19.92 15.36 18.60 14.04 16.98 14.04 C 19.14 18.17 18.17 19.14 16.98 19.14 C 15.79 19.14 14.82 18.17 14.82 16.98 C 14.82 15.79 15.79 14.82 16.98 14.82 C 18.17 14.82 19.14 15.79 19.14 16.98"/>
  <path fill="#5d5d60" fill-rule="evenodd" d="M 11.65 9.50 C 11.87 9.50 12.05 9.32 12.05 9.11 L 12.05 6.52 C 12.05 3.80 14.26 1.59 16.98 1.59 C 19.70 1.59 21.91 3.80 21.91 6.52 L 21.91 9.11 C 21.91 9.32 22.09 9.50 22.31 9.50 C 22.52 9.50 22.70 9.32 22.70 9.11 L 22.70 6.52 C 22.70 3.37 20.13 0.80 16.98 0.80 C 13.82 0.80 11.26 3.37 11.26 6.52 L 11.26 9.11 C 11.26 9.32 11.44 9.50 11.65 9.50"/>
  <path fill="#5d5d60" fill-rule="evenodd" d="M 22.30 24.46 C 22.09 24.46 21.91 24.63 21.91 24.85 L 21.91 27.44 C 21.91 30.16 19.70 32.37 16.98 32.37 C 14.26 32.37 12.05 30.16 12.05 27.44 L 12.05 24.85 C 12.05 24.63 11.87 24.46 11.65 24.46 C 11.43 24.46 11.26 24.63 11.26 24.85 L 11.26 27.44 C 11.26 30.59 13.82 33.16 16.98 33.16 C 20.13 33.16 22.70 30.59 22.70 27.44 L 22.70 24.85 C 22.70 24.63 22.52 24.46 22.30 24.46"/>
  <path fill="#5d5d60" fill-rule="evenodd" d="M 9.11 21.91 L 6.52 21.91 C 3.80 21.91 1.59 19.70 1.59 16.98 C 1.59 14.26 3.80 12.05 6.52 12.05 L 9.11 12.05 C 9.32 12.05 9.50 11.87 9.50 11.65 C 9.50 11.44 9.32 11.26 9.11 11.26 L 6.52 11.26 C 3.37 11.26 0.80 13.83 0.80 16.98 C 0.80 20.13 3.37 22.70 6.52 22.70 L 9.11 22.70 C 9.32 22.70 9.50 22.52 9.50 22.31 C 9.50 22.09 9.32 21.91 9.11 21.91"/>
  <path fill="#5d5d60" fill-rule="evenodd" d="M 27.44 11.26 L 24.85 11.26 C 24.63 11.26 24.46 11.44 24.46 11.65 C 24.46 11.87 24.63 12.05 24.85 12.05 L 27.44 12.05 C 30.16 12.05 32.37 14.26 32.37 16.98 C 32.37 19.70 30.16 21.91 27.44 21.91 L 24.85 21.91 C 24.63 21.91 24.46 22.09 24.46 22.31 C 24.46 22.52 24.63 22.70 24.85 22.70 L 27.44 22.70 C 30.59 22.70 33.16 20.13 33.16 16.98 C 33.16 13.83 30.59 11.26 27.44 11.26"/>
</svg>
