<svg xmlns="http://www.w3.org/2000/svg" viewBox="0 0 33.96 33.96" aria-hidden="true">
  <path fill="#5d5d60" fill-rule="evenodd" d="M 17.00 4.89 L 17.00 4.89 L 17.00 4.89 C 20.08 4.89 23.17 6.08 25.52 8.43 C 27.79 10.69 29.06 13.76 29.06 16.96 L 29.06 16.98 L 29.06 16.98 C 29.06 20.05 27.89 22.99 25.81 25.23 L 25.81 25.24 L 25.63 25.42 L 25.52 25.53 L 25.19 25.86 L 25.18 25.86 C 22.95 27.92 20.14 28.99 17.30 29.06 L 17.30 29.07 L 16.98 29.07 L 16.98 29.07 L 16.98 29.07 L 16.67 29.07 L 16.67 29.06 C 13.68 28.99 10.71 27.81 8.43 25.53 C 6.06 23.16 4.89 20.06 4.89 16.96 L 4.89 16.96 C 4.89 13.87 6.08 10.78 8.43 8.43 C 10.79 6.07 13.90 4.89 17.00 4.89 L 17.00 4.89 L 16.97 4.21 L 16.95 4.21 C 13.57 4.21 10.33 5.55 7.94 7.94 C 5.54 10.34 4.19 13.59 4.19 16.97 L 4.19 16.98 C 4.19 24.03 9.90 29.75 16.95 29.76 L 16.96 29.76 C 24.02 29.76 29.73 24.04 29.74 16.99 L 29.74 16.98 C 29.74 9.93 24.03 4.21 16.97 4.21"/>
  <path fill="#5d5d60" fill-rule="evenodd" d="M 1.48 16.98 L 1.48 16.97 C 1.48 13.01 3.00 9.04 6.02 6.02 C 9.04 3.00 13.01 1.49 16.97 1.49 L 16.97 1.49 C 20.94 1.49 24.90 3.00 27.92 6.03 C 30.83 8.93 32.46 12.86 32.46 16.96 L 32.46 16.98 C 32.46 21.09 30.83 25.03 27.92 27.94 C 24.90 30.96 20.93 32.47 16.97 32.47 L 16.96 32.47 L 16.96 32.47 C 13.00 32.47 9.03 30.95 6.01 27.93 C 2.99 24.91 1.48 20.94 1.48 16.98 L 16.98 0.80 L 16.97 0.80 L 16.97 0.80 L 16.96 0.80 C 12.67 0.80 8.56 2.51 5.54 5.54 C 2.50 8.57 0.80 12.69 0.80 16.98 L 0.80 16.98 C 0.80 25.92 8.04 33.16 16.98 33.16 L 16.98 33.16 C 25.92 33.16 33.16 25.91 33.16 16.98 L 33.16 16.98 C 33.16 8.04 25.91 0.80 16.98 0.80"/>
  <path fill="#5d5d60" fill-rule="evenodd" d="M 16.91 9.17 C 16.55 9.18 16.23 9.50 16.23 9.86 L 16.23 11.45 L 15.77 11.57 C 15.26 11.69 14.79 11.88 14.50 12.12 L 14.49 12.13 L 14.49 12.13 C 13.91 12.59 13.61 13.29 13.61 14.21 L 13.61 14.22 L 13.61 14.22 L 13.61 14.23 C 13.61 14.91 13.79 15.49 14.19 15.95 L 14.21 15.97 L 14.22 15.99 C 14.58 16.46 15.05 16.76 15.62 17.02 C 16.18 17.22 16.68 17.47 17.23 17.60 L 17.28 17.61 L 17.33 17.63 C 17.80 17.84 18.27 18.03 18.66 18.34 L 18.66 18.34 L 18.67 18.35 C 18.83 18.47 18.96 18.62 19.05 18.79 C 19.14 18.96 19.19 19.15 19.19 19.33 L 19.19 19.34 C 19.19 19.57 19.15 19.80 19.04 20.02 L 19.05 20.01 L 19.04 20.02 C 18.95 20.22 18.77 20.43 18.56 20.55 L 18.56 20.55 L 18.56 20.56 C 18.14 20.80 17.72 20.86 17.25 20.93 L 17.20 20.94 L 17.16 20.94 L 16.84 20.94 L 16.84 20.94 C 16.34 20.94 15.87 20.85 15.45 20.66 C 15.03 20.47 14.68 20.18 14.38 19.82 C 14.19 19.63 14.00 19.59 13.90 19.59 L 13.89 19.59 C 13.71 19.59 13.57 19.67 13.49 19.78 L 13.46 19.81 L 13.44 19.84 C 13.32 19.96 13.27 20.13 13.27 20.33 L 13.27 20.33 L 13.27 20.34 C 13.27 20.46 13.31 20.61 13.43 20.84 C 13.72 21.25 14.21 21.62 14.85 22.00 C 15.16 22.16 15.53 22.27 15.92 22.39 L 16.36 22.52 L 16.36 24.10 C 16.37 24.47 16.68 24.78 17.05 24.79 C 17.41 24.78 17.72 24.47 17.73 24.10 L 17.73 22.51 L 18.19 22.40 C 18.73 22.26 19.23 22.04 19.68 21.76 C 20.33 21.22 20.68 20.53 20.69 19.49 L 20.69 19.47 L 20.69 19.47 C 20.68 18.78 20.50 18.21 20.11 17.82 L 20.10 17.81 L 20.09 17.79 C 19.65 17.29 19.15 16.92 18.60 16.67 C 18.04 16.47 17.54 16.22 16.99 16.09 L 16.95 16.08 L 16.91 16.07 C 16.37 15.87 15.94 15.65 15.58 15.36 L 15.57 15.36 L 15.57 15.35 L 15.56 15.35 C 15.42 15.24 15.27 15.09 15.17 14.89 C 15.08 14.70 15.04 14.49 15.04 14.31 L 15.04 14.30 L 15.04 14.29 L 15.04 14.28 C 15.04 14.20 15.04 14.09 15.07 13.94 C 15.10 13.80 15.17 13.63 15.30 13.48 L 15.30 13.48 C 15.43 13.32 15.63 13.18 15.88 13.10 C 16.14 13.01 16.44 12.96 16.84 12.96 L 16.85 12.96 C 16.85 12.96 16.86 12.96 16.87 12.96 C 17.73 12.96 18.51 13.27 19.09 13.86 L 19.09 13.86 C 19.23 14.00 19.40 14.07 19.56 14.07 L 19.57 14.07 L 19.57 14.07 C 19.73 14.07 19.90 14.00 20.04 13.86 C 20.16 13.74 20.21 13.57 20.22 13.36 L 20.22 13.36 C 20.22 13.21 20.17 13.01 20.07 12.86 C 19.62 12.19 18.97 11.78 18.07 11.57 L 17.59 11.46 L 17.59 9.86 C 17.59 9.50 17.28 9.18 16.91 9.17"/>
</svg>
