<svg xmlns="http://www.w3.org/2000/svg" viewBox="0 0 34.08 33.96" aria-hidden="true">
  <path fill="#5d5d60" fill-rule="evenodd" d="M 18.99 33.16 C 18.74 33.16 18.53 32.95 18.53 32.70 L 18.53 30.74 C 18.53 29.79 18.75 28.83 19.16 27.96 L 19.51 27.22 L 14.56 27.22 L 14.91 27.96 C 15.32 28.83 15.54 29.79 15.53 30.74 L 15.53 32.70 C 15.53 32.82 15.49 32.94 15.40 33.02 C 15.32 33.11 15.20 33.16 15.08 33.16 L 3.36 33.16 C 3.10 33.16 2.90 32.95 2.90 32.70 L 2.90 30.74 C 2.89 29.78 3.11 28.81 3.52 27.94 L 3.84 27.27 L 3.10 27.20 C 2.43 27.14 1.81 26.80 1.40 26.27 C 0.98 25.74 0.80 25.06 0.90 24.39 L 2.33 16.58 C 2.42 16.01 2.71 15.50 3.15 15.13 C 3.58 14.77 4.13 14.56 4.70 14.56 L 10.71 14.56 L 10.71 13.01 C 10.71 11.80 11.05 10.63 11.70 9.61 C 12.34 8.60 13.26 7.79 14.34 7.28 L 14.97 6.98 L 14.51 6.46 C 13.92 5.81 13.61 4.96 13.65 4.07 C 13.68 3.19 14.04 2.37 14.68 1.75 C 15.32 1.14 16.15 0.80 17.04 0.80 C 17.92 0.80 18.76 1.14 19.40 1.75 C 20.03 2.37 20.40 3.19 20.43 4.07 C 20.46 4.96 20.16 5.81 19.57 6.46 L 19.10 6.98 L 19.73 7.28 C 20.82 7.79 21.73 8.60 22.38 9.62 C 23.02 10.63 23.36 11.81 23.36 13.01 L 23.36 14.57 L 29.37 14.57 C 29.94 14.57 30.49 14.77 30.93 15.14 C 31.36 15.51 31.65 16.02 31.75 16.58 L 33.18 24.41 C 33.28 25.06 33.10 25.75 32.68 26.28 C 32.27 26.82 31.64 27.16 30.97 27.22 L 30.22 27.28 L 30.55 27.96 C 30.96 28.82 31.18 29.79 31.18 30.75 L 31.18 32.70 C 31.18 32.95 30.97 33.16 30.72 33.16 L 18.99 33.16 C 8.28 25.36 7.35 25.61 6.52 26.08 C 4.86 27.04 3.82 28.84 3.82 30.76 L 3.82 32.26 L 14.63 32.26 L 14.63 30.76 C 14.63 28.84 13.59 27.04 11.93 26.08 C 11.11 25.61 10.17 25.36 9.23 25.36 C 23.92 25.35 22.98 25.60 22.16 26.07 C 20.50 27.03 19.46 28.82 19.46 30.75 L 19.46 32.24 L 30.27 32.24 L 30.27 30.75 C 30.27 28.82 29.23 27.03 27.57 26.07 C 26.75 25.60 25.81 25.35 24.87 25.35 C 31.17 26.31 31.59 26.12 31.88 25.80 C 32.18 25.47 32.32 25.04 32.27 24.60 L 32.27 24.56 L 30.84 16.74 C 30.72 16.03 30.10 15.51 29.37 15.51 L 4.70 15.51 C 3.97 15.51 3.35 16.03 3.23 16.75 L 1.80 24.58 L 1.80 24.60 C 1.75 25.04 1.90 25.47 2.19 25.80 C 2.48 26.12 2.90 26.30 3.33 26.30 L 4.67 26.30 L 4.82 26.15 C 5.33 25.66 5.90 25.26 6.54 24.95 L 7.16 24.65 L 6.70 24.14 C 6.11 23.48 5.80 22.63 5.83 21.75 C 5.86 20.87 6.23 20.04 6.87 19.43 C 7.50 18.81 8.34 18.47 9.22 18.47 C 10.11 18.47 10.95 18.81 11.58 19.43 C 12.22 20.04 12.59 20.87 12.62 21.75 C 12.65 22.63 12.34 23.48 11.75 24.14 L 11.29 24.65 L 11.91 24.95 C 12.55 25.26 13.13 25.66 13.63 26.15 L 13.78 26.30 L 20.31 26.30 L 20.46 26.15 C 20.96 25.66 21.54 25.26 22.18 24.95 L 22.80 24.66 L 22.34 24.14 C 21.75 23.48 21.44 22.63 21.47 21.75 C 21.50 20.87 21.87 20.04 22.51 19.43 C 23.14 18.81 23.98 18.47 24.86 18.47 C 25.75 18.47 26.58 18.81 27.22 19.43 C 27.86 20.04 28.22 20.87 28.26 21.75 C 28.29 22.63 27.98 23.48 27.39 24.14 L 26.93 24.66 L 27.55 24.95 C 28.19 25.26 28.77 25.66 29.27 26.16 L 29.42 26.30 L 30.42 26.30 L 30.72 26.31 C 24.21 19.40 23.57 19.67 23.11 20.13 C 22.65 20.59 22.39 21.21 22.39 21.87 C 22.39 22.53 22.65 23.15 23.12 23.62 C 23.58 24.09 24.20 24.34 24.86 24.34 C 25.52 24.34 26.14 24.09 26.61 23.62 C 27.07 23.16 27.33 22.52 27.33 21.87 C 27.33 21.21 27.08 20.59 26.61 20.13 C 26.14 19.66 25.52 19.40 24.86 19.40 C 8.56 19.40 7.94 19.66 7.47 20.13 C 7.01 20.59 6.75 21.21 6.75 21.87 C 6.75 22.53 7.01 23.15 7.47 23.62 C 7.94 24.09 8.56 24.34 9.22 24.34 C 9.88 24.34 10.50 24.09 10.97 23.62 C 11.43 23.16 11.69 22.52 11.69 21.87 C 11.69 21.21 11.43 20.59 10.97 20.13 C 10.50 19.66 9.88 19.40 9.22 19.40 C 16.09 7.61 15.15 7.86 14.33 8.33 C 12.67 9.29 11.63 11.09 11.63 13.01 L 11.63 14.57 L 22.44 14.57 L 22.44 13.01 C 22.44 11.09 21.40 9.29 19.74 8.33 C 18.92 7.86 17.98 7.61 17.04 7.61 C 16.38 1.73 15.76 1.99 15.29 2.46 C 14.82 2.92 14.57 3.54 14.56 4.20 C 14.56 4.85 14.83 5.49 15.29 5.95 C 15.75 6.42 16.38 6.68 17.04 6.68 C 17.70 6.68 18.32 6.42 18.79 5.96 C 19.26 5.49 19.52 4.87 19.52 4.21 C 19.52 3.54 19.26 2.92 18.79 2.45 C 18.32 1.99 17.70 1.73 17.04 1.73 L 17.04 1.73 L 17.03 1.73"/>
</svg>
